<svg xmlns="http://www.w3.org/2000/svg" style="display:none">
  <symbol id="icons.github" viewBox="0 0 32 32">
    <path d="M15.9381 0C7.13687 0 0 7.33514 0 16.3838C0 23.6227 4.56675 29.764 10.8995 31.9304C11.696 32.082 11.9885 31.575 11.9885 31.1422C11.9885 30.7516 11.9736 29.4608 11.9669 28.0918C7.53275 29.0829 6.59713 26.1588 6.59713 26.1588C5.87213 24.265 4.8275 23.7616 4.8275 23.7616C3.3815 22.7447 4.9365 22.7655 4.9365 22.7655C6.537 22.8811 7.37975 24.4539 7.37975 24.4539C8.80125 26.9586 11.1082 26.2344 12.0177 25.8159C12.1607 24.7569 12.5739 24.0342 13.0296 23.6251C9.48962 23.2107 5.76813 21.8059 5.76813 15.5281C5.76813 13.7395 6.39075 12.2778 7.41038 11.1305C7.24488 10.7178 6.69938 9.05145 7.56475 6.79469C7.56475 6.79469 8.90313 6.35434 11.9489 8.47412C13.2201 8.11099 14.5836 7.92904 15.9381 7.92288C17.2926 7.92904 18.6571 8.11099 19.9309 8.47412C22.973 6.35434 24.3095 6.79469 24.3095 6.79469C25.177 9.05145 24.6312 10.7178 24.4657 11.1305C25.4876 12.2778 26.106 13.7393 26.106 15.5281C26.106 21.8208 22.3775 23.2065 18.8285 23.612C19.4001 24.1204 19.9095 25.1176 19.9095 26.646C19.9095 28.8381 19.891 30.6025 19.891 31.1422C19.891 31.5782 20.1779 32.0891 20.9859 31.9282C27.3151 29.7593 31.8761 23.6202 31.8761 16.3838C31.8761 7.33514 24.7402 0 15.9381 0Z" fill="white"/>
    <path d="M5.96936 23.3389C5.93436 23.4202 5.80961 23.4446 5.69624 23.3888C5.58061 23.3354 5.51561 23.2244 5.55311 23.1426C5.58749 23.0589 5.71224 23.0355 5.82761 23.0918C5.94349 23.1451 6.00949 23.2571 5.96936 23.3389ZM6.75336 24.0579C6.67736 24.1304 6.52874 24.0967 6.42786 23.9822C6.32361 23.868 6.30411 23.7154 6.38124 23.6417C6.45961 23.5694 6.60374 23.6032 6.70824 23.7175C6.81249 23.8331 6.83274 23.9848 6.75324 24.058M7.29124 24.9779C7.19349 25.0477 7.03374 24.9823 6.93511 24.8366C6.83749 24.691 6.83749 24.5163 6.93724 24.4462C7.03624 24.3762 7.19349 24.4392 7.29349 24.5837C7.39099 24.7319 7.39099 24.9066 7.29111 24.9781M8.20074 26.0436C8.11336 26.1425 7.92736 26.116 7.79111 25.9808C7.65186 25.8488 7.61299 25.6613 7.70061 25.5622C7.78899 25.463 7.97611 25.4909 8.11336 25.6249C8.25174 25.7568 8.29386 25.9456 8.20074 26.0436ZM9.37624 26.4033C9.33786 26.5316 9.15861 26.5899 8.97811 26.5354C8.79786 26.4793 8.67986 26.3289 8.71624 26.1993C8.75374 26.0702 8.93374 26.0094 9.11561 26.0677C9.29561 26.1236 9.41374 26.2728 9.37624 26.4033ZM10.7142 26.5559C10.7187 26.691 10.5656 26.8031 10.3761 26.8055C10.1855 26.8098 10.0314 26.7004 10.0294 26.5676C10.0294 26.4311 10.179 26.3201 10.3695 26.3169C10.559 26.313 10.7142 26.4216 10.7142 26.5559ZM12.0285 26.5041C12.0512 26.6359 11.9195 26.7713 11.7314 26.8073C11.5464 26.842 11.3751 26.7607 11.3515 26.63C11.3285 26.4948 11.4627 26.3595 11.6474 26.3244C11.8359 26.2908 12.0045 26.3701 12.0285 26.5041Z" fill="white"/>
  </symbol>

  <symbol id="icons.google" viewBox="0 0 32 32">
    <path fill-rule="evenodd" clip-rule="evenodd" d="M6.88468 15.9998C6.88468 14.9836 7.05345 14.0094 7.35468 13.0956L2.08213 9.06934C1.05454 11.1557 0.475586 13.5067 0.475586 15.9998C0.475586 18.4908 1.05383 20.8404 2.08 22.9253L7.34969 18.8912C7.05131 17.9817 6.88468 17.011 6.88468 15.9998Z" fill="#FBBC05"/>
    <path fill-rule="evenodd" clip-rule="evenodd" d="M16.1422 6.75547C18.3497 6.75547 20.3437 7.53769 21.9103 8.81769L26.4679 4.26658C23.6906 1.8488 20.13 0.355469 16.1422 0.355469C9.95097 0.355469 4.63 3.89609 2.08203 9.06942L7.35458 13.0957C8.56946 9.40791 12.0325 6.75547 16.1422 6.75547Z" fill="#EB4335"/>
    <path fill-rule="evenodd" clip-rule="evenodd" d="M16.1422 25.2446C12.0325 25.2446 8.56946 22.5921 7.35458 18.9043L2.08203 22.9299C4.63 28.1039 9.95097 31.6446 16.1422 31.6446C19.9634 31.6446 23.6116 30.2878 26.3497 27.7455L21.3449 23.8764C19.9328 24.766 18.1546 25.2446 16.1422 25.2446Z" fill="#34A853"/>
    <path fill-rule="evenodd" clip-rule="evenodd" d="M31.0966 15.9997C31.0966 15.0753 30.9542 14.0797 30.7406 13.1553H16.1421V19.1997H24.5451C24.125 21.2605 22.9813 22.8449 21.3448 23.876L26.3496 27.7451C29.2259 25.0756 31.0966 21.0991 31.0966 15.9997Z" fill="#4285F4"/>
  </symbol>

  <symbol id="icons.mbwt" viewBox="0 0 32 32">
    <path d="M15.2876 1.3125C23.0053 1.31267 29.2612 7.56941 29.2612 15.2871C29.2611 23.0047 23.0051 29.2606 15.2876 29.2607H1.31299V15.2871C1.31299 7.56931 7.5698 1.3125 15.2876 1.3125Z" fill="#E3F2FD" stroke="#9BC4F3" stroke-width="1.37506"/>
    <path d="M17.2661 9.80273L19.4146 11.9512" stroke="#0432B0" stroke-width="0.916704" stroke-linecap="round"/>
    <path d="M22.2417 6.07129L24.3902 8.21979" stroke="#0432B0" stroke-width="0.916704" stroke-linecap="round"/>
    <ellipse cx="19.0811" cy="16.5091" rx="1.63965" ry="0.678474" transform="rotate(-29.8529 19.0811 16.5091)" fill="#F2C3CF"/>
    <ellipse cx="28.2403" cy="10.8558" rx="1.63965" ry="0.678474" transform="rotate(-29.8529 28.2403 10.8558)" fill="#F2C3CF"/>
    <path d="M15.3994 28.6071L15.384 28.6078C14.1701 28.6617 12.3359 28.6078 12.3359 28.6078C12.3359 28.6078 15.4907 28.1029 16.7981 27.6998C18.1055 27.2968 18.7617 27.1807 20.1905 26.3994C21.6192 25.6182 22.956 24.4469 23.8655 23.4594C24.775 22.4719 25.2255 21.8492 25.9009 20.6889C26.5764 19.5287 26.8347 18.789 27.3144 17.5227C27.7941 16.2564 27.7174 16.4008 27.8798 15.6569C28.0423 14.9131 28.3095 12.5884 28.3095 12.5884C28.3095 12.5884 28.7223 14.8459 28.6148 16.2223C28.5074 17.5988 28.2079 19.3432 27.3144 21.1978C26.4209 23.0523 25.5184 24.2901 23.9786 25.5513C22.4388 26.8126 21.2046 27.3503 19.512 27.926C17.8265 28.4993 16.6082 28.5534 15.3994 28.6071Z" fill="#CDE6FB"/>
  </symbol>
</svg>
